#N canvas 401 88 865 709.062 10;
#X obj 259 169 cnv 15 306 50 empty empty empty 20 12 0 14 -141667 -66577
0;
#X obj 259 219 cnv 15 306 21 empty empty empty 20 12 0 14 -64657 -66577
0;
#X obj 349 403 cnv 15 128 71 empty empty Nunchuk 62 57 0 12 -233017
-1 0;
#X obj 42 30 tgl 15 0 empty empty empty 17 7 0 10 -258965 -1 -1 1 1
;
#X obj 42 50 xwii;
#X floatatom 42 116 5 0 0 0 - - -, f 5;
#X floatatom 99 116 5 0 0 0 - - -, f 5;
#X obj 379 20 tgl 15 0 empty empty empty 17 7 0 10 -64657 -1 -1 1 1
;
#X obj 379 40 metro 250;
#X obj 42 94 unpack f f;
#X obj 63 169 print devlist;
#X floatatom 38 196 5 0 0 0 - - -, f 5;
#X obj 38 217 t f f;
#X obj 38 239 & 256;
#X obj 38 283 tgl 15 0 empty empty empty 17 7 0 10 -262144 -1 -1 0
256;
#X obj 65 261 & 512;
#X obj 65 283 tgl 15 0 empty empty empty 17 7 0 10 -262144 -1 -1 0
512;
#X text 38 302 M+;
#X text 59 302 Nunchuk;
#X obj 88 50 r xwii;
#X obj 379 146 s xwii;
#X obj 63 146 route devlist info leds battery;
#X floatatom 120 197 5 0 0 0 - - -, f 5;
#X obj 120 284 tgl 15 0 empty empty empty 17 7 0 10 -262144 -1 -1 0
1;
#X obj 141 284 tgl 15 0 empty empty empty 17 7 0 10 -262144 -1 -1 0
2;
#X obj 120 240 & 1;
#X obj 141 262 & 2;
#X obj 120 218 t f f f f;
#X obj 163 284 tgl 15 0 empty empty empty 17 7 0 10 -262144 -1 -1 0
4;
#X obj 184 284 tgl 15 0 empty empty empty 17 7 0 10 -262144 -1 -1 0
8;
#X obj 163 240 & 4;
#X obj 184 262 & 8;
#X text 143 302 LEDs;
#X obj 177 169 hsl 64 15 0 100 0 0 empty empty empty -2 -8 0 10 -253834
-1 -1 0 1;
#X text 189 190 Battery;
#X text 40 7 Open/close device;
#X text 402 18 Poll accel/motion data;
#N canvas 994 355 450 323.031 choose 0;
#X obj 18 85 cnv 15 164 24 empty empty NC 146 10 0 12 -233017 -1 0
;
#X obj 82 87 tgl 15 0 empty empty joystick 17 7 0 10 -262144 -1 -1
0 1;
#X obj 22 87 tgl 15 0 empty empty accel 17 7 0 10 -262144 -1 -1 0 1
;
#X msg 22 177 accel;
#X msg 52 204 ncaccel;
#X msg 105 177 motionplus;
#X msg 135 204 ncstick;
#X obj 22 118 spigot;
#X obj 105 118 spigot;
#X obj 52 143 spigot;
#X obj 135 143 spigot;
#X obj 22 67 tgl 15 0 empty empty accel 17 7 0 10 -262144 -1 -1 0 1
;
#X obj 82 67 tgl 15 0 empty empty motion+ 17 7 0 10 -262144 -1 -1 1
1;
#X obj 21 15 inlet;
#X obj 21 37 t f f f f;
#X obj 70 245 outlet;
#X connect 1 0 10 1;
#X connect 2 0 9 1;
#X connect 3 0 15 0;
#X connect 4 0 15 0;
#X connect 5 0 15 0;
#X connect 6 0 15 0;
#X connect 7 0 3 0;
#X connect 8 0 5 0;
#X connect 9 0 4 0;
#X connect 10 0 6 0;
#X connect 11 0 7 1;
#X connect 12 0 8 1;
#X connect 13 0 14 0;
#X connect 14 0 7 0;
#X connect 14 1 9 0;
#X connect 14 2 8 0;
#X connect 14 3 10 0;
#X coords 0 -1 1 1 172 62 1 15 49;
#X restore 379 71 pd choose;
#X obj 246 334 route accel motionplus ncaccel ncstick;
#X obj 246 356 unpack f f f;
#X obj 302 377 unpack f f f;
#X obj 358 356 unpack f f f;
#X floatatom 246 408 0 0 0 0 x - -;
#X floatatom 246 429 0 0 0 0 y - -;
#X floatatom 246 450 0 0 0 0 z - -;
#X floatatom 302 408 0 0 0 0 x - -;
#X floatatom 302 429 0 0 0 0 y - -;
#X floatatom 302 450 0 0 0 0 z - -;
#X floatatom 358 408 0 0 0 0 x - -;
#X floatatom 358 429 0 0 0 0 y - -;
#X floatatom 358 450 0 0 0 0 z - -;
#X floatatom 414 408 0 0 0 0 x - -;
#X floatatom 414 429 0 0 0 0 y - -;
#X obj 414 377 unpack f f;
#X obj 511 371 bng 15 250 50 0 empty reset reset 17 7 0 10 -262144
-1 -1;
#X floatatom 511 420 0 0 0 0 x - x;
#X floatatom 511 441 0 0 0 0 y - y;
#X text 61 25 (click here first!);
#N canvas 751 123 717 628.062 posxyz 0;
#X obj 26 15 inlet;
#X obj 86 253 accum;
#X obj 86 276 min 10000;
#X obj 86 320 outlet;
#X obj 153 253 accum;
#X obj 153 276 min 10000;
#X obj 153 320 outlet;
#X msg 26 59 0;
#X obj 86 298 max -10000;
#X obj 153 298 max -10000;
#X obj 85 223 t b f;
#X obj 152 223 t b f;
#X obj 143 111 / 500;
#X obj 186 111 / 500;
#X obj 143 133 int;
#X obj 186 133 int;
#X obj 143 89 unpack f f f;
#X obj 219 223 t b f;
#X obj 229 111 / 500;
#X obj 229 133 int;
#X obj 220 253 accum;
#X obj 220 276 min 10000;
#X obj 220 320 outlet;
#X obj 220 298 max -10000;
#X obj 26 37 route bang calibrate;
#X obj 26 81 t f f f;
#X obj 318 109 bng 15 250 50 0 empty empty empty 17 7 0 10 -262144
-1 -1;
#X obj 85 153 t f f;
#X obj 152 153 t f f;
#X obj 219 153 t f f;
#X obj 310 219 accum;
#X obj 351 219 accum;
#X obj 392 219 accum;
#X msg 318 149 0;
#X obj 143 63 t a b;
#X obj 318 171 t f f f f;
#X obj 416 50 f;
#X obj 446 50 + 1;
#X obj 416 72 == 10;
#X obj 416 94 sel 1;
#X floatatom 310 241 5 0 0 0 - - -, f 5;
#X floatatom 351 241 5 0 0 0 - - -, f 5;
#X floatatom 392 241 5 0 0 0 - - -, f 5;
#X obj 310 262 / 10;
#X obj 351 262 / 10;
#X obj 392 262 / 10;
#X text 298 80 auto calibration;
#X floatatom 310 286 5 0 0 0 - - -, f 5;
#X floatatom 351 286 5 0 0 0 - - -, f 5;
#X floatatom 392 286 5 0 0 0 - - -, f 5;
#X obj 85 175 -;
#X obj 152 175 -;
#X obj 219 175 -;
#X obj 416 116 t b b b b;
#X obj 318 129 t b b;
#X text 62 346 The Motion+ sensor delivers rather crappy data \, but
at least it lets us do some scaling \, rounding and accumulation to
get useful location data out of it \, if the device is properly calibrated
(which will be done automatically \, and by sending an explicit calibrate
message.;
#X obj 85 197 int;
#X obj 152 197 int;
#X obj 219 197 int;
#X connect 0 0 24 0;
#X connect 1 0 2 0;
#X connect 2 0 8 0;
#X connect 4 0 5 0;
#X connect 5 0 9 0;
#X connect 7 0 25 0;
#X connect 8 0 3 0;
#X connect 9 0 6 0;
#X connect 10 0 1 0;
#X connect 10 1 1 1;
#X connect 11 0 4 0;
#X connect 11 1 4 1;
#X connect 12 0 14 0;
#X connect 13 0 15 0;
#X connect 14 0 27 0;
#X connect 15 0 28 0;
#X connect 16 0 12 0;
#X connect 16 1 13 0;
#X connect 16 2 18 0;
#X connect 17 0 20 0;
#X connect 17 1 20 1;
#X connect 18 0 19 0;
#X connect 19 0 29 0;
#X connect 20 0 21 0;
#X connect 21 0 23 0;
#X connect 23 0 22 0;
#X connect 24 0 7 0;
#X connect 24 1 26 0;
#X connect 24 2 34 0;
#X connect 25 0 1 0;
#X connect 25 1 4 0;
#X connect 25 2 20 0;
#X connect 26 0 54 0;
#X connect 27 0 50 0;
#X connect 27 1 30 1;
#X connect 28 0 51 0;
#X connect 28 1 31 1;
#X connect 29 0 52 0;
#X connect 29 1 32 1;
#X connect 30 0 40 0;
#X connect 31 0 41 0;
#X connect 32 0 42 0;
#X connect 33 0 35 0;
#X connect 34 0 16 0;
#X connect 34 1 36 0;
#X connect 35 0 30 0;
#X connect 35 1 31 0;
#X connect 35 2 32 0;
#X connect 35 3 36 1;
#X connect 36 0 37 0;
#X connect 36 0 38 0;
#X connect 37 0 36 1;
#X connect 38 0 39 0;
#X connect 39 0 53 0;
#X connect 40 0 43 0;
#X connect 41 0 44 0;
#X connect 42 0 45 0;
#X connect 43 0 47 0;
#X connect 44 0 48 0;
#X connect 45 0 49 0;
#X connect 47 0 50 1;
#X connect 48 0 51 1;
#X connect 49 0 52 1;
#X connect 50 0 56 0;
#X connect 51 0 57 0;
#X connect 52 0 58 0;
#X connect 53 0 7 0;
#X connect 53 1 30 0;
#X connect 53 2 31 0;
#X connect 53 3 32 0;
#X connect 54 0 33 0;
#X connect 54 1 7 0;
#X connect 56 0 10 0;
#X connect 57 0 11 0;
#X connect 58 0 17 0;
#X restore 511 395 pd posxyz;
#X floatatom 511 462 0 0 0 0 z - z;
#X msg 511 345 calibrate;
#X obj 42 72 t a a;
#X text 143 116 button data;
#X obj 150 72 sel 1;
#X obj 511 323 r calibrate;
#X obj 150 94 bng 15 250 50 0 calibrate empty calibrate 17 7 0 10 -262144
-1 -1;
#X text 255 250 This is the raw acceleration/motion data which by itself
is rather useless \, so you probably need to process it in some way.
E.g. \, the posxyz subpatch on the right shows how to extract location
information as x y z coordinates from the Motion+ sensor., f 54;
#N canvas 606 152 770 574.062 more 0;
#X msg 72 198 info;
#X msg 18 198 devlist;
#X msg 108 198 leds;
#X msg 144 198 battery;
#X obj 18 224 s xwii;
#X text 21 35 The xwii object provides access to the Wiimote devices
connected to your computer. This patch demonstrates some of the available
functionality \, how to obtain data from the Wiimote itself and operate
its leds and rumble motor \, and read acceleration and joystick data
from a connected Nunchuk if available. Please also check the included
README for more information., f 80;
#X obj 252 261 tgl 15 0 empty empty empty 17 7 0 10 -262144 -1 -1 0
1;
#X obj 252 281 metro 500;
#X obj 252 303 f;
#X obj 283 303 + 1;
#X obj 313 303 mod 16;
#X msg 252 325 leds \$1;
#X obj 20 279 tgl 15 0 empty empty empty 17 7 0 10 -262144 -1 -1 0
1;
#X msg 20 299 rumble \$1;
#X obj 252 347 s xwii;
#X obj 20 321 s xwii;
#X text 249 223 LED light show (demonstrates how to operate the four
LEDs on the Wiimote), f 38;
#X text 85 300 arg is 0 or 1;
#X text 308 326 arg is the bitmask - hooking it up to a counter mod
16 like here will show all 4 bit patterns, f 29;
#X text 18 256 rumble - operate the rumble motor;
#X text 18 116 Query device information: (1) devlist - prints the list
of available devices in the console window (this is the only message
which works without having opened a device). (2) info - outputs a bitmask
of the available extensions \, such as Motion+ and Nunchuk. (3) leds
- outputs a bitmask of active leds. (4) battery - outputs the battery
status. Note that results will be shown in the main patch., f 80;
#X text 21 12 xwii [dev] -- dev is the device number (1 by default)
;
#X connect 0 0 4 0;
#X connect 1 0 4 0;
#X connect 2 0 4 0;
#X connect 3 0 4 0;
#X connect 6 0 7 0;
#X connect 7 0 8 0;
#X connect 8 0 9 0;
#X connect 8 0 11 0;
#X connect 9 0 10 0;
#X connect 10 0 8 1;
#X connect 11 0 14 0;
#X connect 12 0 13 0;
#X connect 13 0 15 0;
#X restore 267 221 pd more;
#X text 326 221 Click here for more information;
#N canvas 1938 328 741 556.062 sound 0;
#X floatatom 53 34 5 0 0 0 - - -, f 5;
#X obj 21 166 makenote 64 500;
#X obj 21 188 noteout 1;
#X obj 21 34 r x;
#X floatatom 53 34 5 0 0 2 transpose tx -, f 5;
#X obj 21 166 makenote 64 500;
#X obj 21 188 noteout 1;
#X obj 64 116 hsl 64 15 0 127 0 0 empty vx velocity -2 -8 0 10 -262144
-1 -1 3175 1;
#X obj 151 34 r x;
#X floatatom 183 34 5 0 0 0 - - -, f 5;
#X obj 151 166 makenote 64 500;
#X obj 151 188 noteout 1;
#X floatatom 183 34 5 0 0 2 transpose ty -, f 5;
#X obj 151 166 makenote 64 500;
#X obj 194 116 hsl 64 15 0 127 0 0 empty vy velocity -2 -8 0 10 -262144
-1 -1 3969 1;
#X obj 281 34 r x;
#X floatatom 313 34 5 0 0 0 - - -, f 5;
#X obj 281 166 makenote 64 500;
#X obj 281 188 noteout 1;
#X floatatom 313 34 5 0 0 2 transpose tz -, f 5;
#X obj 281 166 makenote 64 500;
#X obj 324 116 hsl 64 15 0 127 0 0 empty vz velocity -2 -8 0 10 -262144
-1 -1 2580 1;
#X obj 151 34 r y;
#X obj 281 34 r z;
#X obj 151 188 noteout 2;
#X obj 281 188 noteout 3;
#X obj 433 23 loadbang;
#X floatatom 21 145 5 0 0 0 - - -, f 5;
#X floatatom 151 145 5 0 0 0 - - -, f 5;
#X floatatom 281 145 5 0 0 0 - - -, f 5;
#N canvas 396 394 506 313.062 map 0;
#X obj 12 14 inlet;
#X obj 12 36 abs;
#X obj 12 58 mod 36;
#X obj 12 80 change;
#X obj 12 102 + 48;
#X obj 12 124 spigot;
#X obj 52 14 inlet;
#X obj 92 14 inlet;
#X obj 12 146 outlet;
#X text 73 59 The motion data is all over the place \, so we apply
some simple transformations to turn them into a somewhat reasonable
stream of notes (absolute values \, mod 36). 1st inlet is the raw data
\, 2nd inlet the desired transposition \, 3rd inlet a 0/1 value controlling
a spigot., f 42;
#X connect 0 0 1 0;
#X connect 1 0 2 0;
#X connect 2 0 3 0;
#X connect 3 0 4 0;
#X connect 4 0 5 0;
#X connect 5 0 8 0;
#X connect 6 0 4 1;
#X connect 7 0 5 1;
#X restore 21 82 pd map;
#X floatatom 21 58 5 0 0 0 - - -, f 5;
#X obj 110 21 inlet;
#X obj 110 43 tgl 15 0 empty empty empty 17 7 0 10 -262144 -1 -1 1
1;
#X obj 240 21 inlet;
#X obj 240 43 tgl 15 0 empty empty empty 17 7 0 10 -262144 -1 -1 1
1;
#X obj 370 21 inlet;
#X obj 370 43 tgl 15 0 empty empty empty 17 7 0 10 -262144 -1 -1 1
1;
#N canvas 396 394 506 313.062 map 0;
#X obj 12 14 inlet;
#X obj 12 36 abs;
#X obj 12 58 mod 36;
#X obj 12 80 change;
#X obj 12 102 + 48;
#X obj 12 124 spigot;
#X obj 52 14 inlet;
#X obj 92 14 inlet;
#X obj 12 146 outlet;
#X text 73 59 The motion data is all over the place \, so we apply
some simple transformations to turn them into a somewhat reasonable
stream of notes (absolute values \, mod 36). 1st inlet is the raw data
\, 2nd inlet the desired transposition \, 3rd inlet a 0/1 value controlling
a spigot., f 42;
#X connect 0 0 1 0;
#X connect 1 0 2 0;
#X connect 2 0 3 0;
#X connect 3 0 4 0;
#X connect 4 0 5 0;
#X connect 5 0 8 0;
#X connect 6 0 4 1;
#X connect 7 0 5 1;
#X restore 151 82 pd map;
#X floatatom 151 58 5 0 0 0 - - -, f 5;
#N canvas 396 394 506 313.062 map 0;
#X obj 12 14 inlet;
#X obj 12 36 abs;
#X obj 12 58 mod 36;
#X obj 12 80 change;
#X obj 12 102 + 48;
#X obj 12 124 spigot;
#X obj 52 14 inlet;
#X obj 92 14 inlet;
#X obj 12 146 outlet;
#X text 73 59 The motion data is all over the place \, so we apply
some simple transformations to turn them into a somewhat reasonable
stream of notes (absolute values \, mod 36). 1st inlet is the raw data
\, 2nd inlet the desired transposition \, 3rd inlet a 0/1 value controlling
a spigot., f 42;
#X connect 0 0 1 0;
#X connect 1 0 2 0;
#X connect 2 0 3 0;
#X connect 3 0 4 0;
#X connect 4 0 5 0;
#X connect 5 0 8 0;
#X connect 6 0 4 1;
#X connect 7 0 5 1;
#X restore 281 82 pd map;
#X floatatom 281 58 5 0 0 0 - - -, f 5;
#X text 42 267 This demonstrates how one might go about using the Motion+
location data. Here we just generate MIDI notes from the x y z data
(see the map subpatches for details). Note that you need to have the
Motion+ sensor activated in the main patch and a MIDI synthesizer hooked
up to Pd's MIDI output to make this work.;
#X floatatom 66 214 5 0 0 0 - progx -, f 5;
#X obj 66 235 pgmout 1;
#X floatatom 196 214 5 0 0 0 - progy -, f 5;
#X floatatom 326 214 5 0 0 0 - progz -, f 5;
#X obj 196 235 pgmout 2;
#X obj 326 235 pgmout 3;
#X msg 433 45 \; tx 48 \; vx 64 \; ty 36 \; vy 80 \; tz 24 \; vz 52
\; progx 10 \; progy 12 \; progz 14;
#X connect 1 0 2 0;
#X connect 1 1 2 1;
#X connect 3 0 31 0;
#X connect 4 0 30 1;
#X connect 5 0 6 0;
#X connect 5 1 6 1;
#X connect 7 0 5 1;
#X connect 10 0 11 0;
#X connect 10 1 11 1;
#X connect 12 0 38 1;
#X connect 13 0 24 0;
#X connect 13 1 24 1;
#X connect 14 0 13 1;
#X connect 17 0 18 0;
#X connect 17 1 18 1;
#X connect 19 0 40 1;
#X connect 20 0 25 0;
#X connect 20 1 25 1;
#X connect 21 0 20 1;
#X connect 22 0 39 0;
#X connect 23 0 41 0;
#X connect 26 0 49 0;
#X connect 27 0 5 0;
#X connect 28 0 13 0;
#X connect 29 0 20 0;
#X connect 30 0 27 0;
#X connect 31 0 30 0;
#X connect 32 0 33 0;
#X connect 33 0 30 2;
#X connect 34 0 35 0;
#X connect 35 0 38 2;
#X connect 36 0 37 0;
#X connect 37 0 40 2;
#X connect 38 0 28 0;
#X connect 39 0 38 0;
#X connect 40 0 29 0;
#X connect 41 0 40 0;
#X connect 43 0 44 0;
#X connect 45 0 47 0;
#X connect 46 0 48 0;
#X restore 267 197 pd sound;
#X text 326 197 MIDI sound generation from Motion+ data;
#X text 13 325 INSTRUCTIONS: (1) Open the device by clicking the red
toggle above. (2) Click the green toggle and use the box on the right
above to choose which acceleration and motion data to read. (3) Keep
the device still and push the calibrate control (or press the A button
on the Wiimote) to calibrate the Motion+ location data. Wait until
the x y z values stabilize. (4) Connect the data to some sound generator
to have fun., f 36;
#X obj 267 173 tgl 15 0 empty empty empty 17 7 0 10 -262144 -1 -1 1
1;
#X obj 289 173 tgl 15 0 empty empty empty 17 7 0 10 -262144 -1 -1 1
1;
#X obj 312 173 tgl 15 0 empty empty empty 17 7 0 10 -262144 -1 -1 1
1;
#X obj 230 72 sel 1;
#X obj 230 94 bng 15 250 50 0 reset empty reset 17 7 0 10 -262144 -1
-1;
#X obj 150 50 route 4 5;
#X text 216 22 Button A calibrates \, button B resets the motion+ position
data, f 23;
#X text 339 172 Toggles enable up to 3 MIDI voices;
#X connect 3 0 4 0;
#X connect 4 0 61 0;
#X connect 4 1 21 0;
#X connect 7 0 8 0;
#X connect 8 0 37 0;
#X connect 9 0 5 0;
#X connect 9 1 6 0;
#X connect 11 0 12 0;
#X connect 12 0 13 0;
#X connect 12 1 15 0;
#X connect 13 0 14 0;
#X connect 15 0 16 0;
#X connect 19 0 4 0;
#X connect 21 0 10 0;
#X connect 21 1 11 0;
#X connect 21 2 22 0;
#X connect 21 3 33 0;
#X connect 21 4 38 0;
#X connect 22 0 27 0;
#X connect 25 0 23 0;
#X connect 26 0 24 0;
#X connect 27 0 25 0;
#X connect 27 1 26 0;
#X connect 27 2 30 0;
#X connect 27 3 31 0;
#X connect 30 0 28 0;
#X connect 31 0 29 0;
#X connect 37 0 20 0;
#X connect 38 0 39 0;
#X connect 38 1 40 0;
#X connect 38 1 58 0;
#X connect 38 2 41 0;
#X connect 38 3 53 0;
#X connect 39 0 42 0;
#X connect 39 1 43 0;
#X connect 39 2 44 0;
#X connect 40 0 45 0;
#X connect 40 1 46 0;
#X connect 40 2 47 0;
#X connect 41 0 48 0;
#X connect 41 1 49 0;
#X connect 41 2 50 0;
#X connect 53 0 51 0;
#X connect 53 1 52 0;
#X connect 54 0 58 0;
#X connect 58 0 55 0;
#X connect 58 1 56 0;
#X connect 58 2 59 0;
#X connect 60 0 58 0;
#X connect 61 0 9 0;
#X connect 61 1 77 0;
#X connect 63 0 65 0;
#X connect 64 0 60 0;
#X connect 72 0 69 0;
#X connect 73 0 69 1;
#X connect 74 0 69 2;
#X connect 75 0 76 0;
#X connect 77 0 63 0;
#X connect 77 1 75 0;
